<svg width="46" height="52" viewBox="0 0 46 52" fill="none" xmlns="http://www.w3.org/2000/svg">
<path d="M14.7945 51.9947H2.04565C0.915729 51.9947 0 51.079 0 49.949V26.9531C0 25.8232 0.915729 24.9075 2.04565 24.9075H7.04646C7.67971 24.9075 8.28813 25.0223 8.84688 25.2334C9.36217 25.4259 9.84021 25.699 10.2624 26.0405C10.6908 26.3851 11.0664 26.801 11.3613 27.2667C11.6655 27.7354 11.8921 28.2569 12.0255 28.8126C12.1187 29.2037 12.1714 29.6103 12.1714 30.0294C12.1714 30.1505 12.1652 30.2684 12.1559 30.3864C12.0721 31.656 11.5196 32.8046 10.669 33.652L10.489 33.8196L8.57371 35.6014L8.39367 35.7691C7.98082 36.185 7.72938 36.7624 7.72938 37.3926C7.72938 37.5074 7.73559 37.6223 7.75111 37.734C7.80077 38.0693 7.92494 38.3828 8.10188 38.656L8.25709 38.8702L8.26329 38.8764L16.033 49.5486C16.7718 50.5606 16.0485 51.9854 14.7914 51.9854L14.7945 51.9947Z" fill="#51D2C3"/>
<path d="M29.1512 51.9939H14.7945C16.0516 51.9939 16.7749 50.5691 16.0361 49.5571L8.2664 38.8849L8.26019 38.8787L8.10498 38.6645C7.92804 38.3913 7.80698 38.0778 7.75421 37.7425C7.73869 37.6339 7.73248 37.5159 7.73248 37.4011C7.73248 36.7709 7.98702 36.1935 8.39677 35.7776L8.57681 35.6099L10.4921 33.825L10.6721 33.6574C11.5227 32.81 12.0721 31.6614 12.159 30.3918C12.1683 30.2738 12.1745 30.1528 12.1745 30.0348C12.1745 29.6157 12.1249 29.2091 12.0286 28.818C11.8921 28.2592 11.6686 27.7377 11.3644 27.2721C11.0664 26.8064 10.6939 26.3936 10.2655 26.0459C9.84331 25.7044 9.36838 25.4282 8.84998 25.2388C8.29123 25.0277 7.68281 24.9129 7.04956 24.9129H2.04565C0.915729 24.9129 0 25.8286 0 26.9585V15.771C0 14.6411 0.915729 13.7253 2.04565 13.7253H18.5909C18.6995 13.7253 18.805 13.7253 18.9137 13.7316C21.934 13.8371 24.5757 15.4389 26.1216 17.8167C26.3233 18.1271 26.5065 18.4468 26.6679 18.7821C27.2422 19.9648 27.565 21.2934 27.565 22.6996C27.565 23.547 27.447 24.3665 27.2266 25.1457C27.0342 25.8286 26.761 26.4774 26.4196 27.0858L26.1619 27.5142L26.1495 27.5359L21.8502 34.7159L21.8378 34.7346C21.6019 35.0543 21.4374 35.4237 21.3629 35.8303C21.3318 35.9886 21.3163 36.1563 21.3163 36.3239C21.3163 36.4294 21.3225 36.5319 21.3349 36.6343C21.366 36.9106 21.4405 37.1776 21.5491 37.4197L22.2134 38.3292L30.396 49.5633C31.1317 50.5753 30.4084 52.0001 29.1543 52.0001L29.1512 51.9939Z" fill="#2AABC8"/>
<path d="M43.7532 51.9953H29.1543C30.4115 51.9953 31.1348 50.5705 30.396 49.5585L22.2134 38.3244L21.5491 37.4149C21.4405 37.1728 21.366 36.9058 21.3349 36.6295C21.3225 36.5271 21.3163 36.4247 21.3163 36.3191C21.3163 36.1515 21.3318 35.9839 21.3629 35.8255C21.4374 35.4189 21.6019 35.0495 21.8378 34.7298L21.8502 34.7111L26.1495 27.5311L26.1619 27.5094C26.2519 27.3697 26.3389 27.2269 26.4196 27.081C26.761 26.4726 27.0342 25.8238 27.2267 25.1409C27.447 24.3648 27.565 23.5422 27.565 22.6948C27.565 21.2886 27.2422 19.96 26.6679 18.7773C26.5034 18.442 26.3233 18.1192 26.1216 17.8119C24.5757 15.4341 21.934 13.8323 18.9137 13.7268C18.805 13.7206 18.6995 13.7206 18.5909 13.7206H2.04565C0.915729 13.7206 0 14.6363 0 15.7662V2.04567C0 0.915738 0.915729 0 2.04565 0H25.5752C31.9978 0 37.638 3.3308 40.8695 8.3596C41.7542 9.74097 42.4588 11.2465 42.9493 12.8514C43.4614 14.5276 43.7377 16.3126 43.7377 18.1596C43.7377 24.042 40.944 29.2726 36.6043 32.5848C36.5236 32.6375 36.4522 32.6965 36.3777 32.7555C36.3777 32.7617 36.3715 32.7617 36.3684 32.7648C36.0673 33.0194 35.8097 33.3267 35.6203 33.6743C35.6048 33.6992 35.5924 33.724 35.58 33.7488C35.521 33.8606 35.4682 33.9754 35.4248 34.0934L35.3751 34.2331C35.2789 34.5404 35.2261 34.8632 35.2261 35.1985C35.2261 35.2885 35.2261 35.3754 35.2385 35.4624C35.3037 36.0118 35.4775 36.4309 35.5644 36.6264C35.7662 37.0703 36.0208 37.4025 36.238 37.6384C39.156 41.6087 42.0708 45.5789 44.9887 49.5492C45.7368 50.5612 45.0104 51.9922 43.7532 51.9922V51.9953Z" fill="#3584DB"/>
</svg>
